<?xml version="1.0"?>
<svg xmlns="http://www.w3.org/2000/svg" xmlns:xlink="http://www.w3.org/1999/xlink" xmlns:svgjs="http://svgjs.com/svgjs" version="1.1" width="512" height="512" x="0" y="0" viewBox="0 0 496.91 496.91" style="enable-background:new 0 0 512 512" xml:space="preserve" class=""><g><g xmlns="http://www.w3.org/2000/svg"><g><g fill="#cf2283"><path d="m53.113 115.05c-10.565 14.614-19.537 30.454-26.646 47.276-12.171 28.801-18.901 60.462-18.901 93.695 0 52.641 16.897 101.329 45.547 140.961z" fill="#d5a458" data-original="#cf2283" style="" class=""/><path d="m248.455 15.132c-13.005 0-25.767 1.04-38.213 3.024v473.078l2.048 2.963c11.797 1.779 23.871 2.714 36.165 2.714 133.039 0 240.889-107.85 240.889-240.889s-107.85-240.89-240.889-240.89z" fill="#d5a458" data-original="#cf2283" style="" class=""/></g></g><g><g><path d="m376.189 151.793v-76.629c-10.704-7.64-22.064-14.418-33.973-20.251h-211.641c-29.953 14.672-56.412 35.374-77.794 60.53v281.079c5.134 7.477 12.896 16.045 20.272 24.592.083.096.294.106.387.192 22.549 20.831 53.691 38.384 71.363 49.345 6.408 3.974 12.911 8.107 19.817 11.221v-138.456h186.636v-86.195h-186.636v-105.428z" fill="#766142" data-original="#9d1359" style="" class=""/></g></g><g><path d="m423.857 124.275v-105.453c0-10.395-8.427-18.822-18.822-18.822h-313.16c-10.395 0-18.822 8.427-18.822 18.822v402.292c4.388 4.661 8.96 9.146 13.704 13.445l111.831 57.177c4.521.952 9.089 1.777 13.7 2.471v-178.309h186.636v-113.59h-186.636v-78.032h211.569z" fill="#03acff" data-original="#03d0ff" style="" class=""/><g><path d="m410.159 110.578-15.843-88.498-307.565-8.382v420.869c11.384 10.317 23.76 19.558 36.967 27.565 1.604.972 4.255-.823 4.255-.823s3.195 5.165 4.508 5.887c10.738 5.907 21.975 11.019 33.632 15.258l.816.296 31.66-180.548h186.636l-9.733-73.082-187.172-6.274 10.269-112.267h211.57z" fill="#03acff" data-original="#5493fb" style="" class=""/><g><path d="m166.93 482.749c10.249 3.686 20.82 6.694 31.66 8.976v-189.525l-31.66-31.66z" fill="#03acff" data-original="#9bf7f9" style="" class=""/><g><g><path d="m198.59 216.005v-105.427l-31.66-31.66v168.748h186.636v22.874l31.661 31.66v-86.195z" fill="#03acff" data-original="#9bf7f9" style="" class=""/></g></g><g><g><path d="m86.751 13.698 31.66 31.66h260.088v33.56l31.66 31.66v-96.88z" fill="#03acff" data-original="#9bf7f9" style="" class=""/></g></g></g></g><path d="m132.485 467.188v-395.982h246.895v-8.766h-251.278c-2.421 0-4.383 1.963-4.383 4.383v395.307c2.882 1.747 5.807 3.43 8.766 5.058z" fill="#03acff" data-original="#9bf7f9" style="" class=""/><g><g><path d="m128.102 254.746h225.464v8.766h-225.464z" fill="#03acff" data-original="#9bf7f9" style="" class=""/></g></g></g><g><g><g><path d="m45.434 186.296 3.663 9.602c1.835 4.81 5.634 8.609 10.444 10.444l9.602 3.663-9.602 3.663c-4.81 1.835-8.61 5.634-10.444 10.444l-3.663 9.602-3.663-9.602c-1.835-4.81-5.634-8.609-10.444-10.444l-9.602-3.663 9.602-3.663c4.81-1.835 8.609-5.634 10.444-10.444z" fill="#ffffff" data-original="#ffffff" style="" class=""/></g></g><g><g><path d="m310.465 369.962 4.956 12.991c2.483 6.508 7.623 11.648 14.131 14.131l12.991 4.956-12.991 4.956c-6.508 2.483-11.648 7.623-14.131 14.131l-4.956 12.991-4.956-12.991c-2.483-6.508-7.623-11.648-14.131-14.131l-12.991-4.956 12.991-4.956c6.508-2.483 11.648-7.623 14.131-14.131z" fill="#ffffff" data-original="#ffffff" style="" class=""/></g></g><g><g><path d="m429.785 137.499 5.601 14.682c2.806 7.355 8.615 13.165 15.97 15.97l14.682 5.601-14.682 5.601c-7.355 2.806-13.165 8.615-15.97 15.97l-5.601 14.682-5.601-14.682c-2.806-7.355-8.615-13.165-15.97-15.97l-14.682-5.601 14.682-5.601c7.355-2.806 13.165-8.615 15.97-15.97z" fill="#ffffff" data-original="#ffffff" style="" class=""/></g></g></g></g></g></svg>
