<?xml version="1.0" encoding="iso-8859-1"?>
<!-- Generator: Adobe Illustrator 19.0.0, SVG Export Plug-In . SVG Version: 6.00 Build 0)  -->
<svg version="1.1" id="Capa_1" xmlns="http://www.w3.org/2000/svg" xmlns:xlink="http://www.w3.org/1999/xlink" x="0px" y="0px"
	 viewBox="0 0 469.333 469.333" style="enable-background:new 0 0 469.333 469.333;" xml:space="preserve">
<path style="fill:#FCE8C3;" d="M234.667,0C105.064,0,0,105.064,0,234.667s105.064,234.667,234.667,234.667
	S469.333,364.27,469.333,234.667S364.27,0,234.667,0z M383.512,251.755c-35.346,35.346-101.146,26.854-146.967-18.967
	c-45.82-45.822-54.313-111.621-18.966-146.966c35.346-35.346,101.146-26.855,146.966,18.966
	C410.366,150.609,418.858,216.409,383.512,251.755L383.512,251.755z"/>
<path style="fill:#F9D797;" d="M420.314,241.09c-19.366,0.021-36.292,13.076-41.229,31.803
	c-21.228,79.816-103.141,127.311-182.958,106.083c-7.383-1.964-14.604-4.49-21.601-7.557c-21.562-9.504-46.747,0.271-56.251,21.833
	c-9.492,21.534,0.244,46.687,21.761,56.219c22.762,10.042,46.984,16.375,71.747,18.76l0.001,0c0.124,0.012,0.246,0.024,0.369,0.035
	l0.001,0c1.235,0.118,2.468,0.225,3.708,0.323l0.006,0l0.178,0.014l0.009,0.001l0.169,0.013l0.022,0.002l0.165,0.013l0.022,0.002
	l0.157,0.012l0.036,0.003l0.154,0.012l0.031,0.002l0.155,0.012l0.035,0.003l0.154,0.011l0.034,0.003l0.152,0.011l0.037,0.003
	l0.152,0.011l0.035,0.002l0.151,0.011l0.04,0.003l0.152,0.011l0.028,0.002l0.159,0.011l0.029,0.002l0.163,0.011l0.008,0.001
	l0.179,0.012l0.007,0.001c0.614,0.042,1.222,0.081,1.838,0.118l0.03,0.002l0.165,0.01l0.02,0.001l0.157,0.009l0.036,0.002
	l0.146,0.008l0.045,0.003l0.135,0.008l0.059,0.003l0.132,0.007l0.055,0.003l0.135,0.008l0.055,0.003l0.136,0.008l0.051,0.003
	l0.135,0.007l0.058,0.003l0.132,0.007l0.055,0.003l0.133,0.007l0.06,0.003l0.129,0.007l0.061,0.003l0.126,0.006l0.071,0.004
	l0.12,0.006l0.065,0.003l0.128,0.006l0.057,0.003l0.135,0.007l0.049,0.002l0.139,0.007l0.054,0.003l0.138,0.007l0.039,0.002
	l0.153,0.007l0.024,0.001l0.165,0.008l0.017,0.001c0.297,0.013,0.612,0.027,0.909,0.039l0.016,0.001l0.149,0.006l0.042,0.002
	l0.141,0.006l0.049,0.002l0.13,0.005l0.064,0.003l0.114,0.004l0.079,0.003l0.114,0.004l0.076,0.003l0.116,0.004l0.075,0.003
	l0.116,0.004l0.077,0.003l0.113,0.004l0.077,0.003l0.117,0.004l0.073,0.002l0.117,0.004l0.074,0.002l0.117,0.004l0.078,0.003
	l0.108,0.004l0.087,0.003l0.104,0.003l0.087,0.003l0.105,0.003l0.085,0.003l0.108,0.003l0.085,0.002l0.104,0.003l0.086,0.002
	l0.109,0.003l0.079,0.002l0.111,0.003l0.081,0.002l0.112,0.003l0.085,0.002l0.103,0.003l0.096,0.002l0.099,0.002l0.086,0.002
	l0.106,0.003l0.083,0.002l0.109,0.003l0.1,0.002l0.09,0.002l0.12,0.003l0.198,0.004l0.063,0.001l0.121,0.002l0.071,0.001
	l0.109,0.002l0.085,0.002l0.1,0.002l0.093,0.002l0.1,0.002l0.092,0.002l0.1,0.002l0.092,0.002l0.099,0.002l0.096,0.001l0.098,0.002
	l0.092,0.001l0.101,0.001l0.094,0.001l0.099,0.001l0.092,0.001l0.101,0.001l0.094,0.001l0.098,0.001l0.097,0.001l0.093,0.001
	l0.102,0.001l0.092,0.001l0.098,0.001l0.096,0.001l0.1,0.001l0.091,0.001l0.104,0.001l0.089,0.001l0.105,0.001l0.09,0.001
	l0.102,0.001l0.092,0.001l0.104,0.001l0.089,0.001l0.104,0.001l0.091,0l0.097,0l0.098,0l0.096,0l0.095,0l0.113,0l0.08,0l0.113,0
	l0.082,0l0.102,0l0.092,0l0.191,0l0.179,0h0.045l0.131,0l0.061,0l0.119,0l0.061,0l0.12,0l0.06,0l0.17-0.001h0.002l0.18-0.001
	l0.045,0l0.132-0.001l0.063,0l0.112-0.001l0.07,0l0.11-0.001l0.067,0l0.127-0.001l0.049,0l0.173-0.001l0.051,0l0.126-0.001
	l0.063-0.001l0.117-0.001l0.061-0.001l0.119-0.001l0.062-0.001l0.125-0.001l0.051-0.001l0.175-0.002l0.033,0l0.144-0.002l0.06-0.001
	l0.115-0.002l0.067-0.001l0.116-0.002l0.061-0.001l0.124-0.002l0.053-0.001c0.11-0.002,0.243-0.004,0.353-0.006l0.056-0.001
	l0.118-0.002l0.07-0.001l0.107-0.002l0.071-0.001l0.109-0.002l0.067-0.001l0.14-0.003l0.034-0.001l0.176-0.004l0.05-0.001
	l0.122-0.003l0.071-0.002l0.107-0.002l0.068-0.002l0.116-0.003l0.06-0.001l0.131-0.003l0.047-0.001l0.172-0.004l0.053-0.001
	l0.123-0.003l0.063-0.002l0.115-0.003l0.066-0.002l0.116-0.003l0.06-0.002l0.125-0.004l0.053-0.001l0.175-0.005l0.018-0.001
	l0.155-0.005l0.061-0.002l0.117-0.004l0.065-0.002l0.115-0.004l0.06-0.002l0.13-0.004l0.047-0.001
	c0.126-0.004,0.23-0.008,0.356-0.012l0.039-0.001l0.135-0.005l0.059-0.002l0.118-0.004l0.061-0.002l0.123-0.004l0.054-0.002
	c0.118-0.004,0.233-0.009,0.351-0.013l0.049-0.002l0.129-0.005l0.057-0.002l0.12-0.005l0.058-0.002l0.126-0.005l0.051-0.002
	l0.145-0.006l0.031-0.001l0.18-0.007l0.019-0.001l0.158-0.007l0.046-0.002l0.128-0.006l0.059-0.003l0.118-0.005l0.063-0.003
	l0.133-0.006l0.039-0.002l0.178-0.008l0.02-0.001l0.156-0.007l0.052-0.002l0.121-0.006l0.063-0.003l0.121-0.006l0.055-0.003
	l0.126-0.006l0.052-0.003l0.157-0.008l0.031-0.002l0.16-0.008l0.061-0.003l0.116-0.006l0.063-0.003l0.113-0.006l0.066-0.003
	l0.121-0.006l0.05-0.003l0.157-0.008l0.02-0.001l0.178-0.01l0.034-0.002l0.139-0.008l0.057-0.003l0.119-0.007l0.063-0.004
	l0.11-0.006l0.067-0.004l0.136-0.008l0.035-0.002l0.18-0.01l0.012-0.001l0.162-0.01l0.046-0.003l0.128-0.008l0.058-0.004
	l0.127-0.008l0.046-0.003l0.148-0.009l0.029-0.002c0.117-0.007,0.239-0.015,0.355-0.022l0.043-0.003l0.136-0.009l0.048-0.003
	l0.13-0.008l0.049-0.003l0.139-0.009l0.038-0.002c0.125-0.008,0.231-0.015,0.355-0.024l0.035-0.002l0.141-0.01l0.049-0.003
	l0.132-0.009l0.045-0.003l0.138-0.01l0.041-0.003c0.117-0.008,0.238-0.017,0.354-0.025l0.03-0.002l0.148-0.011l0.042-0.003
	l0.131-0.01l0.053-0.004l0.132-0.01l0.044-0.003l0.169-0.013l0.003,0l0.184-0.014l0.012-0.001l0.16-0.012l0.052-0.004l0.127-0.01
	l0.047-0.004l0.134-0.01l0.046-0.004l0.153-0.012l0.019-0.001c0.124-0.01,0.238-0.019,0.362-0.029l0.025-0.002l0.145-0.012
	l0.051-0.004l0.128-0.01l0.049-0.004l0.139-0.011l0.036-0.003c0.124-0.01,0.233-0.019,0.357-0.03l0.026-0.002l0.151-0.013
	l0.037-0.003l0.142-0.012l0.04-0.003l0.153-0.013l0.021-0.002c0.124-0.011,0.241-0.021,0.365-0.032l0.003,0l0.167-0.015l0.045-0.004
	l0.133-0.012l0.045-0.004l0.142-0.013l0.031-0.003c0.186-0.017,0.351-0.032,0.536-0.049l0.034-0.003l0.145-0.014l0.038-0.004
	l0.145-0.014l0.032-0.003l0.159-0.015l0.019-0.002c0.123-0.012,0.233-0.022,0.357-0.034l0.034-0.003l0.143-0.014l0.043-0.004
	l0.132-0.013l0.047-0.005l0.14-0.014l0.036-0.004c0.123-0.012,0.229-0.023,0.353-0.035l0.033-0.003l0.141-0.014l0.05-0.005
	l0.128-0.013l0.047-0.005l0.137-0.014l0.039-0.004c0.123-0.013,0.232-0.024,0.355-0.037l0.013-0.001l0.164-0.017l0.03-0.003
	l0.147-0.016l0.034-0.004l0.151-0.016l0.028-0.003l0.166-0.018l0.011-0.001c0.123-0.013,0.237-0.026,0.36-0.039l0.024-0.003
	l0.15-0.017l0.037-0.004l0.143-0.016l0.035-0.004c0.177-0.02,0.356-0.04,0.533-0.06l0.029-0.003l0.144-0.016l0.042-0.005
	l0.142-0.016l0.033-0.004l0.155-0.018l0.021-0.002c0.123-0.014,0.24-0.028,0.362-0.042c0.007-0.001-0.003,0,0.003,0l0.17-0.02
	l0.029-0.003l0.148-0.018l0.035-0.004l0.154-0.018l0.02-0.002c0.123-0.015,0.238-0.029,0.361-0.044l0.005-0.001l0.172-0.021
	l0.022-0.003l0.156-0.019l0.028-0.003l0.15-0.019l0.029-0.004c0.184-0.023,0.351-0.044,0.535-0.067l0.021-0.003l0.151-0.019
	l0.037-0.005l0.149-0.019l0.023-0.003c0.184-0.023,0.354-0.046,0.537-0.069l0.017-0.002l0.161-0.021l0.023-0.003l0.157-0.021
	l0.022-0.003l0.174-0.023h0c0.122-0.016,0.242-0.032,0.364-0.049l0.01-0.001l0.163-0.022l0.033-0.004l0.146-0.02l0.03-0.004
	l0.153-0.021l0.025-0.003c0.183-0.025,0.353-0.048,0.536-0.074l0.016-0.002l0.156-0.022l0.032-0.005l0.156-0.022l0.017-0.002
	c0.183-0.026,0.355-0.05,0.538-0.076l0.014-0.002l0.164-0.024l0.017-0.003l0.163-0.024l0.017-0.002
	c0.243-0.035,0.474-0.069,0.717-0.105l0.014-0.002l0.167-0.025l0.012-0.002c0.243-0.036,0.474-0.071,0.717-0.108l0.019-0.003
	l0.153-0.023l0.033-0.005l0.159-0.024l0.01-0.001c0.182-0.028,0.354-0.055,0.536-0.083l0.019-0.003l0.161-0.025l0.017-0.003
	l0.167-0.026l0.01-0.002c0.243-0.038,0.478-0.076,0.719-0.115l0.009-0.001c0.303-0.049,0.596-0.097,0.899-0.146l0.01-0.002
	l0.17-0.028l0.01-0.002c0.907-0.15,1.807-0.305,2.711-0.466l0.177-0.032l0.006-0.001c0.602-0.108,1.199-0.217,1.799-0.329l0.003,0
	c0.3-0.056,0.599-0.112,0.898-0.17l0,0c0.3-0.057,0.599-0.115,0.898-0.173l0.002,0c0.958-0.187,1.913-0.379,2.866-0.577l0.002,0
	c86.96-18.239,156.2-83.961,178.943-169.854c5.949-22.822-7.729-46.145-30.551-52.094
	C427.557,241.556,423.943,241.092,420.314,241.09L420.314,241.09z"/>
<g>
	<path style="fill:#F6C569;" d="M234.875,469.333h-0.208c-86.215,0.033-165.501-47.229-206.479-123.083
		c-5.605-10.369-1.742-23.319,8.627-28.923c10.363-5.601,23.305-1.747,28.915,8.611c33.517,62.076,98.391,100.758,168.938,100.729
		c11.782-0.058,21.38,9.447,21.438,21.229C256.162,459.678,246.657,469.276,234.875,469.333L234.875,469.333z"/>
	<path style="fill:#F6C569;" d="M335.917,443.823c-11.784,0.01-21.344-9.534-21.354-21.318c-0.007-7.842,4.289-15.056,11.188-18.786
		c62.18-33.491,100.943-98.426,100.917-169.052c0-11.781,9.542-21.771,21.333-21.771s21.333,9.104,21.333,20.885v0.885
		c0.035,86.301-47.32,165.652-123.292,206.594C342.932,442.941,339.452,443.822,335.917,443.823z"/>
</g>
<path style="fill:#F9D695;" d="M21.333,256.229c-11.676,0.106-21.227-9.274-21.332-20.95C0,235.224,0,235.169,0,235.115v-0.448
	C-0.021,148.538,47.146,69.319,122.875,28.292c10.355-5.615,23.302-1.772,28.917,8.583s1.772,23.302-8.583,28.917
	C81.244,99.368,42.651,164.19,42.667,234.667C42.688,246.495,33.161,256.124,21.333,256.229z"/>
<path style="fill:#45129C;" d="M192,277.333h64l4.174-2.385c93.81-53.606,169.729-142.128,207.667-243.294l0,0
	c3.226-8.602,1.126-18.295-5.37-24.791c-6.496-6.496-16.189-8.596-24.791-5.37l0,0C336.514,39.43,247.991,115.349,194.385,209.159
	L192,213.333V277.333z"/>
<path style="fill:#5628B4;" d="M425.245,6.815c-95.902,39.357-179.488,112.443-230.859,202.344L192,213.333v39.051
	C315.747,233.224,412.565,132.589,425.245,6.815L425.245,6.815z"/>
<path style="fill:#F7B236;" d="M170.667,256c-70.692,0-128,57.307-128,127.999c0,0,0,0,0,0.001v42.667
	c0,11.782-9.551,21.333-21.333,21.333H10.667C4.776,448,0,452.776,0,458.667c0,5.891,4.776,10.667,10.667,10.667h32
	c94.257,0,170.667-76.41,170.667-170.667L170.667,256z"/>
<path style="fill:#E7455F;" d="M192,213.334L170.667,256l42.667,42.667L256,277.334L192,213.334z"/>
<path style="fill:#FCE8C3;" d="M364.544,104.788c32.204,32.204,45.509,74.112,38.576,108.546h65.137
	C457.464,93.742,357.068,0,234.667,0v73.542C271.536,53.936,325.303,65.546,364.544,104.788z"/>
<circle style="fill:#E7455F;" cx="287.997" cy="373.337" r="53.33"/>
<circle style="fill:#F9D797;" cx="106.667" cy="170.667" r="64"/>
<circle style="fill:#5628B4;" cx="106.667" cy="149.337" r="64"/>
<circle style="fill:#F7B236;" cx="394.667" cy="309.337" r="32"/>
<circle style="fill:#9172CE;" cx="85.337" cy="127.997" r="21.333"/>
<circle style="fill:#F4AAB6;" cx="277.337" cy="362.667" r="21.333"/>
<g>
	<circle style="fill:#FBDEA9;" cx="394.667" cy="309.337" r="10.667"/>
	
		<ellipse transform="matrix(-0.7071 -0.7071 0.7071 -0.7071 -7.3727 636.6313)" style="fill:#FBDEA9;" cx="128.164" cy="319.843" rx="30.17" ry="52.55"/>
</g>
<ellipse transform="matrix(-0.7071 -0.7071 0.7071 -0.7071 404.4064 466.0547)" style="fill:#9172CE;" cx="298.726" cy="149.272" rx="21.26" ry="56.642"/>
<path style="fill:#F58B04;" d="M6.352,468.385h37.263c12.398-0.063,24.767-1.209,36.966-3.424
	c75.982-17.26,132.753-85.087,132.753-166.294l-4.451-4.451c-17.372,75.829-85.118,132.451-166.216,132.451
	c0,11.782-9.551,21.333-21.333,21.333H10.667C4.788,447.988,0.012,452.744,0,458.623C-0.009,462.849,2.484,466.681,6.352,468.385
	L6.352,468.385z"/>
<path style="fill:#B62754;" d="M213.333,298.667l-18.019-18.019c-6.887-6.887-8.594-17.408-4.239-26.119
	c5.589-11.177,19.18-15.708,30.358-10.119c2.175,1.088,4.161,2.519,5.881,4.239L256,277.333L213.333,298.667z"/>
<g>
</g>
<g>
</g>
<g>
</g>
<g>
</g>
<g>
</g>
<g>
</g>
<g>
</g>
<g>
</g>
<g>
</g>
<g>
</g>
<g>
</g>
<g>
</g>
<g>
</g>
<g>
</g>
<g>
</g>
</svg>
