<?xml version="1.0" encoding="iso-8859-1"?>
<!-- Generator: Adobe Illustrator 19.0.0, SVG Export Plug-In . SVG Version: 6.00 Build 0)  -->
<svg version="1.1" id="Capa_1" xmlns="http://www.w3.org/2000/svg" xmlns:xlink="http://www.w3.org/1999/xlink" x="0px" y="0px"
	 viewBox="0 0 469.334 469.334" style="enable-background:new 0 0 469.334 469.334;" xml:space="preserve">
<g>
	<path style="fill:#FCE8C3;" d="M64,42.667h106.667l0,0V128l0,0H64c-23.564,0-42.667-19.103-42.667-42.667l0,0v0
		C21.334,61.769,40.436,42.667,64,42.667L64,42.667z"/>
	<path style="fill:#FCE8C3;" d="M320,128l115.503,115.503c8.002,8.002,12.497,18.854,12.497,30.17v152.994
		c0,23.564-19.102,42.667-42.667,42.667h0h-64C258.859,469.334,192,402.475,192,320v0h128V128z"/>
</g>
<g>
	<path style="fill:#F6C887;" d="M198.266,362.667c18.866,63.273,77.042,106.647,143.068,106.667h21.333V362.667H198.266z"/>
	<path style="fill:#F6C887;" d="M286.175,158.17c11.782-11.782,30.885-11.782,42.667,0l46.327,46.327
		c11.782,11.782,11.782,30.885,0,42.667c-11.782,11.782-30.885,11.782-42.667,0l-46.327-46.327
		C274.393,189.055,274.393,169.952,286.175,158.17L286.175,158.17z"/>
</g>
<path style="fill:#5628B4;" d="M128.004,0H277.34c23.564,0,42.667,19.103,42.667,42.667v298.666
	c0,23.564-19.103,42.667-42.667,42.667H128.004c-23.564,0-42.667-19.103-42.667-42.667V42.667C85.337,19.103,104.44,0,128.004,0z"/>
<path style="fill:#D7C7EF;" d="M128.004,0H256c23.564,0,42.667,19.103,42.667,42.667v298.666C298.667,364.897,279.564,384,256,384
	H128.004c-23.564,0-42.667-19.103-42.667-42.667V42.667C85.337,19.103,104.44,0,128.004,0z"/>
<path style="fill:#F2EDF9;" d="M128,21.334h128.004c11.782,0,21.333,9.551,21.333,21.333v298.664
	c0,11.782-9.551,21.333-21.333,21.333H128c-11.782,0-21.333-9.551-21.333-21.333V42.667C106.667,30.885,116.218,21.334,128,21.334z"
	/>
<path style="fill:#7F5CC7;" d="M309.334,63.997h21.333c5.891,0,10.667,4.776,10.667,10.667v42.666
	c0,5.891-4.776,10.667-10.667,10.667h-21.333c-5.891,0-10.667-4.776-10.667-10.667V74.664
	C298.667,68.773,303.443,63.997,309.334,63.997z"/>
<path style="fill:#5628B4;" d="M330.663,63.997L330.663,63.997c5.891,0,10.667,4.776,10.667,10.667v42.666
	c0,5.891-4.776,10.667-10.667,10.667l0,0c-5.891,0-10.667-4.776-10.667-10.667V74.664C319.997,68.773,324.772,63.997,330.663,63.997
	z"/>
<path style="fill:#7F5CC7;" d="M309.334,149.337h21.333c5.891,0,10.667,4.776,10.667,10.667v42.666
	c0,5.891-4.776,10.667-10.667,10.667h-21.333c-5.891,0-10.667-4.776-10.667-10.667v-42.666
	C298.667,154.113,303.443,149.337,309.334,149.337z"/>
<path style="fill:#5628B4;" d="M330.663,149.337L330.663,149.337c5.891,0,10.667,4.776,10.667,10.667v42.666
	c0,5.891-4.776,10.667-10.667,10.667l0,0c-5.891,0-10.667-4.776-10.667-10.667v-42.666
	C319.997,154.113,324.772,149.337,330.663,149.337z"/>
<g>
	<path style="fill:#6E47BF;" d="M149.33,106.667h85.334c11.782,0,21.333,9.551,21.333,21.333v64.004
		c0,11.782-9.551,21.333-21.333,21.333H149.33c-11.782,0-21.333-9.551-21.333-21.333V128
		C127.997,116.218,137.548,106.667,149.33,106.667z"/>
	<circle style="fill:#6E47BF;" cx="149.337" cy="63.997" r="21.333"/>
	<path style="fill:#6E47BF;" d="M202.664,42.667h42.666c5.891,0,10.667,4.776,10.667,10.667l0,0c0,5.891-4.776,10.666-10.667,10.666
		h-42.666c-5.891,0-10.667-4.776-10.667-10.666l0,0C191.997,47.443,196.773,42.667,202.664,42.667z"/>
	<path style="fill:#6E47BF;" d="M138.664,234.667H245.33c5.891,0,10.667,4.776,10.667,10.667l0,0
		c0,5.891-4.776,10.667-10.667,10.667H138.664c-5.891,0-10.667-4.776-10.667-10.667l0,0
		C127.997,239.443,132.773,234.667,138.664,234.667z"/>
	<path style="fill:#6E47BF;" d="M138.664,277.337h42.666c5.891,0,10.667,4.776,10.667,10.667l0,0
		c0,5.891-4.776,10.667-10.667,10.667h-42.666c-5.891,0-10.667-4.776-10.667-10.667l0,0
		C127.997,282.113,132.773,277.337,138.664,277.337z"/>
</g>
<g>
	<path style="fill:#E8DFF4;" d="M117.333,21.334L117.333,21.334c5.891,0,10.667,4.776,10.667,10.667v319.996
		c0,5.891-4.776,10.667-10.667,10.667l0,0c-5.891,0-10.667-4.776-10.667-10.667V32.001C106.667,26.11,111.442,21.334,117.333,21.334
		z"/>
	<path style="fill:#E8DFF4;" d="M117.334,21.334H245.33c5.891,0,10.667,4.776,10.667,10.667l0,0c0,5.891-4.776,10.667-10.667,10.667
		H117.334c-5.891,0-10.667-4.776-10.667-10.667l0,0C106.667,26.11,111.443,21.334,117.334,21.334z"/>
</g>
<g>
	<path style="fill:#FCE8C3;" d="M277.333,170.667l128,128v170.667h0c-70.692,0-128-57.308-128-128v0L192,256
		c-23.564-23.564-23.564-61.769,0-85.333l0,0l0,0C215.564,147.103,253.769,147.103,277.333,170.667L277.333,170.667z"/>
	<path style="fill:#FCE8C3;" d="M74.667,298.667h21.33c17.673,0,32,14.327,32,32l0,0c0,17.673-14.327,32-32,32h-21.33
		c-17.673,0-32-14.327-32-32l0,0C42.667,312.994,56.994,298.667,74.667,298.667z"/>
	<path style="fill:#FCE8C3;" d="M85.334,213.337h21.336c23.564,0,42.667,19.102,42.667,42.665l0,0
		c0,23.563-19.103,42.665-42.667,42.665H85.334c-23.564,0-42.667-19.102-42.667-42.665l0,0
		C42.667,232.439,61.77,213.337,85.334,213.337z"/>
</g>
<g>
	<path style="fill:#FFFFFF;" d="M85.334,256c0,11.782,9.551,21.333,21.333,21.333c0,0,0,0,0,0H128v-42.667h-21.333
		C94.885,234.667,85.334,244.218,85.334,256C85.334,256,85.334,256,85.334,256z"/>
	<path style="fill:#FFFFFF;" d="M85.334,320h21.333v21.333H85.334V320z"/>
</g>
<path style="fill:#FCE8C3;" d="M85.334,127.997H128c23.564,0,42.667,19.102,42.667,42.665l0,0c0,23.563-19.103,42.665-42.667,42.665
	H85.334c-23.564,0-42.667-19.102-42.667-42.665l0,0C42.667,147.099,61.77,127.997,85.334,127.997z"/>
<g>
	<path style="fill:#F6C887;" d="M164.257,192.909c12.392-19.916,6.292-46.107-13.624-58.499c-6.79-4.225-14.636-6.447-22.633-6.41
		v64H96c-5.891,0-10.667,4.776-10.667,10.667c0,5.891,4.776,10.667,10.667,10.667h32c3.424-0.038,6.831-0.49,10.146-1.348
		c0.874-0.217,1.691-0.52,2.543-0.789c2.497-0.777,4.917-1.785,7.227-3.012c0.622-0.336,1.246-0.638,1.849-1.003
		c5.911-3.518,10.882-8.414,14.49-14.271L164.257,192.909L164.257,192.909z"/>
	<path style="fill:#F6C887;" d="M142.865,278.229c4.21-6.651,6.452-14.358,6.469-22.229c-0.034-15.181-8.167-29.191-21.333-36.749
		v58.082H96c-5.891,0-10.667,4.776-10.667,10.667c0,5.891,4.776,10.667,10.667,10.667h10.667
		c11.223-0.007,21.979-4.49,29.885-12.456c1.019-1.144,1.976-2.341,2.867-3.587c1.262-1.383,2.432-2.847,3.504-4.382
		C142.905,278.235,142.883,278.237,142.865,278.229L142.865,278.229z"/>
</g>
<path style="fill:#FFFFFF;" d="M106.667,170.667c0,11.782,9.551,21.333,21.333,21.333c0,0,0,0,0,0h21.333v-42.667H128
	C116.218,149.334,106.667,158.885,106.667,170.667C106.667,170.667,106.667,170.667,106.667,170.667z"/>
<path style="fill:#F6C887;" d="M64,42.667c-23.564,0-42.666,19.102-42.667,42.666c0,0,0,0.001,0,0.001H64V96
	c0,5.891,4.776,10.667,10.667,10.667S85.334,101.891,85.334,96V42.667H64z"/>
<g>
	<path style="fill:#FEF4E2;" d="M53.333,149.337L53.333,149.337c5.891,0,10.666,4.776,10.666,10.667v21.333
		c0,5.891-4.776,10.667-10.666,10.667l0,0c-5.891,0-10.667-4.776-10.667-10.667v-21.333
		C42.667,154.113,47.442,149.337,53.333,149.337z"/>
	<path style="fill:#FEF4E2;" d="M53.333,234.667L53.333,234.667c5.891,0,10.666,4.776,10.666,10.667v21.333
		c0,5.891-4.776,10.667-10.666,10.667l0,0c-5.891,0-10.667-4.776-10.667-10.667v-21.333
		C42.667,239.443,47.442,234.667,53.333,234.667z"/>
	<path style="fill:#FEF4E2;" d="M53.334,341.334c-5.891,0-10.667-4.776-10.667-10.667c0,0,0,0,0,0
		c0-5.891,4.776-10.667,10.667-10.667C59.225,320,64,324.776,64,330.667l0,0C64,336.558,59.225,341.334,53.334,341.334z"/>
</g>
<g>
	<path style="fill:#F6C887;" d="M124.792,344.4c-0.069-0.068-0.171-0.095-0.241-0.16c2.171-4.202,3.35-8.845,3.449-13.573
		c-0.027-13.523-8.575-25.56-21.333-30.042v40.708H96c-5.891,0-10.667,4.776-10.667,10.667c0,5.891,4.776,10.667,10.667,10.667
		c3.648-0.053,7.258-0.745,10.667-2.046v0.087c0.432-0.154,0.77-0.47,1.193-0.641c2.321-0.911,4.526-2.094,6.569-3.525
		c0.891-0.691,1.743-1.429,2.555-2.211c1.378-1.181,2.654-2.477,3.813-3.874c0.944-1.224,1.797-2.516,2.549-3.866
		C123.788,345.832,124.41,345.198,124.792,344.4L124.792,344.4z"/>
	<path style="fill:#F6C887;" d="M288,330.667c5.891-5.891,5.891-15.442,0-21.333l-80.915-80.915c-8.331-8.331-8.331-21.838,0-30.169
		L245.334,160c1.462-1.471,2.602-3.229,3.348-5.164c-32.307-7.85-64.861,11.977-72.711,44.284C171,219.579,177.078,241.148,192,256
		l74.667,74.667C272.558,336.558,282.109,336.558,288,330.667L288,330.667z"/>
</g>
<path style="fill:#FFFFFF;" d="M202.667,224l42.667-42.667c5.891-5.891,15.442-5.891,21.333,0c0,0,0,0,0,0
	c17.673,17.673,17.673,46.327,0,64l0,0v0c-17.673,17.673-46.327,17.673-64,0c-5.894-5.888-5.905-15.433-0.018-21.327
	C202.653,224.002,202.657,223.998,202.667,224L202.667,224z"/>
<path style="fill:#FEF4E2;" d="M320.003,341.333L320.003,341.333c11.782-11.782,30.885-11.782,42.667,0L405.337,384
	c11.782,11.782,11.782,30.885,0,42.667l0,0c-11.782,11.782-30.885,11.782-42.667,0L320.003,384
	C308.221,372.217,308.221,353.115,320.003,341.333z"/>
<g>
</g>
<g>
</g>
<g>
</g>
<g>
</g>
<g>
</g>
<g>
</g>
<g>
</g>
<g>
</g>
<g>
</g>
<g>
</g>
<g>
</g>
<g>
</g>
<g>
</g>
<g>
</g>
<g>
</g>
</svg>
